<?xml version="1.0" encoding="UTF-8" standalone="no"?>
<svg xmlns="http://www.w3.org/2000/svg" xmlns:xlink="http://www.w3.org/1999/xlink" version="1.1" width="800" height="600" viewBox="0 0 800 600">
  <defs>
    <filter id="shadow" x="-10%" y="-10%" width="120%" height="120%">
      <feDropShadow dx="2" dy="2" stdDeviation="3" flood-opacity="0.3"/>
    </filter>
    <linearGradient id="source-gradient" x1="0%" y1="0%" x2="100%" y2="100%">
      <stop offset="0%" style="stop-color:#24292E;stop-opacity:1"/>
      <stop offset="100%" style="stop-color:#1B1F23;stop-opacity:1"/>
    </linearGradient>
    <linearGradient id="build-gradient" x1="0%" y1="0%" x2="100%" y2="100%">
      <stop offset="0%" style="stop-color:#0078D4;stop-opacity:1"/>
      <stop offset="100%" style="stop-color:#0063B1;stop-opacity:1"/>
    </linearGradient>
    <linearGradient id="test-gradient" x1="0%" y1="0%" x2="100%" y2="100%">
      <stop offset="0%" style="stop-color:#83B81A;stop-opacity:1"/>
      <stop offset="100%" style="stop-color:#5A8010;stop-opacity:1"/>
    </linearGradient>
    <linearGradient id="deploy-gradient" x1="0%" y1="0%" x2="100%" y2="100%">
      <stop offset="0%" style="stop-color:#FF8C00;stop-opacity:1"/>
      <stop offset="100%" style="stop-color:#DD7B00;stop-opacity:1"/>
    </linearGradient>
    <linearGradient id="monitor-gradient" x1="0%" y1="0%" x2="100%" y2="100%">
      <stop offset="0%" style="stop-color:#8661C5;stop-opacity:1"/>
      <stop offset="100%" style="stop-color:#6B4C9E;stop-opacity:1"/>
    </linearGradient>
    <linearGradient id="security-gradient" x1="0%" y1="0%" x2="100%" y2="100%">
      <stop offset="0%" style="stop-color:#CF2030;stop-opacity:1"/>
      <stop offset="100%" style="stop-color:#B01B29;stop-opacity:1"/>
    </linearGradient>
    <marker id="arrowhead" markerWidth="10" markerHeight="7" refX="9" refY="3.5" orient="auto">
      <polygon points="0 0, 10 3.5, 0 7" fill="#666"/>
    </marker>
  </defs>
  
  <!-- Title -->
  <text x="400" y="50" font-family="Arial, sans-serif" font-size="24" text-anchor="middle" font-weight="bold" fill="#333">CI/CD Pipeline Architecture</text>
  
  <!-- Pipeline Flow -->
  <rect x="100" y="100" width="600" height="80" rx="0" ry="0" fill="#F8F8F8" stroke="#ccc" stroke-width="2"/>
  <line x1="100" y1="140" x2="700" y2="140" stroke="#ccc" stroke-width="1" stroke-dasharray="5,5"/>
  <text x="400" y="125" font-family="Arial, sans-serif" font-size="16" text-anchor="middle" fill="#333" font-weight="bold">Pipeline Stages</text>
  <text x="400" y="165" font-family="Arial, sans-serif" font-size="14" text-anchor="middle" fill="#666">GitHub Actions Workflow</text>
  
  <!-- Source Control -->
  <rect x="100" y="200" width="100" height="80" rx="10" ry="10" fill="url(#source-gradient)" filter="url(#shadow)"/>
  <text x="150" y="240" font-family="Arial, sans-serif" font-size="16" text-anchor="middle" fill="white" font-weight="bold">Source</text>
  <text x="150" y="260" font-family="Arial, sans-serif" font-size="12" text-anchor="middle" fill="white">GitHub</text>
  
  <!-- Build Stage -->
  <rect x="220" y="200" width="100" height="80" rx="10" ry="10" fill="url(#build-gradient)" filter="url(#shadow)"/>
  <text x="270" y="240" font-family="Arial, sans-serif" font-size="16" text-anchor="middle" fill="white" font-weight="bold">Build</text>
  <text x="270" y="260" font-family="Arial, sans-serif" font-size="12" text-anchor="middle" fill="white">Compile</text>
  
  <!-- Test Stage -->
  <rect x="340" y="200" width="100" height="80" rx="10" ry="10" fill="url(#test-gradient)" filter="url(#shadow)"/>
  <text x="390" y="240" font-family="Arial, sans-serif" font-size="16" text-anchor="middle" fill="white" font-weight="bold">Test</text>
  <text x="390" y="260" font-family="Arial, sans-serif" font-size="12" text-anchor="middle" fill="white">Validate</text>
  
  <!-- Security Stage -->
  <rect x="460" y="200" width="100" height="80" rx="10" ry="10" fill="url(#security-gradient)" filter="url(#shadow)"/>
  <text x="510" y="240" font-family="Arial, sans-serif" font-size="16" text-anchor="middle" fill="white" font-weight="bold">Security</text>
  <text x="510" y="260" font-family="Arial, sans-serif" font-size="12" text-anchor="middle" fill="white">Scan</text>
  
  <!-- Deploy Stage -->
  <rect x="580" y="200" width="100" height="80" rx="10" ry="10" fill="url(#deploy-gradient)" filter="url(#shadow)"/>
  <text x="630" y="240" font-family="Arial, sans-serif" font-size="16" text-anchor="middle" fill="white" font-weight="bold">Deploy</text>
  <text x="630" y="260" font-family="Arial, sans-serif" font-size="12" text-anchor="middle" fill="white">Release</text>
  
  <!-- Arrows Between Stages -->
  <line x1="200" y1="240" x2="220" y2="240" stroke="#666" stroke-width="2" marker-end="url(#arrowhead)"/>
  <line x1="320" y1="240" x2="340" y2="240" stroke="#666" stroke-width="2" marker-end="url(#arrowhead)"/>
  <line x1="440" y1="240" x2="460" y2="240" stroke="#666" stroke-width="2" marker-end="url(#arrowhead)"/>
  <line x1="560" y1="240" x2="580" y2="240" stroke="#666" stroke-width="2" marker-end="url(#arrowhead)"/>
  
  <!-- Environments -->
  <rect x="100" y="320" width="600" height="60" rx="0" ry="0" fill="#F8F8F8" stroke="#ccc" stroke-width="2"/>
  <text x="400" y="355" font-family="Arial, sans-serif" font-size="16" text-anchor="middle" fill="#333" font-weight="bold">Deployment Environments</text>
  
  <!-- Development Environment -->
  <rect x="100" y="400" width="140" height="80" rx="10" ry="10" fill="url(#deploy-gradient)" filter="url(#shadow)" opacity="0.8"/>
  <text x="170" y="435" font-family="Arial, sans-serif" font-size="16" text-anchor="middle" fill="white" font-weight="bold">Development</text>
  <text x="170" y="455" font-family="Arial, sans-serif" font-size="12" text-anchor="middle" fill="white">Automatic</text>
  
  <!-- Testing Environment -->
  <rect x="260" y="400" width="140" height="80" rx="10" ry="10" fill="url(#deploy-gradient)" filter="url(#shadow)" opacity="0.8"/>
  <text x="330" y="435" font-family="Arial, sans-serif" font-size="16" text-anchor="middle" fill="white" font-weight="bold">Testing</text>
  <text x="330" y="455" font-family="Arial, sans-serif" font-size="12" text-anchor="middle" fill="white">Automated Tests</text>
  
  <!-- Staging Environment -->
  <rect x="420" y="400" width="140" height="80" rx="10" ry="10" fill="url(#deploy-gradient)" filter="url(#shadow)" opacity="0.8"/>
  <text x="490" y="435" font-family="Arial, sans-serif" font-size="16" text-anchor="middle" fill="white" font-weight="bold">Staging</text>
  <text x="490" y="455" font-family="Arial, sans-serif" font-size="12" text-anchor="middle" fill="white">Manual Approval</text>
  
  <!-- Production Environment -->
  <rect x="580" y="400" width="140" height="80" rx="10" ry="10" fill="url(#deploy-gradient)" filter="url(#shadow)" opacity="0.8"/>
  <text x="650" y="435" font-family="Arial, sans-serif" font-size="16" text-anchor="middle" fill="white" font-weight="bold">Production</text>
  <text x="650" y="455" font-family="Arial, sans-serif" font-size="12" text-anchor="middle" fill="white">Manual Approval</text>
  
  <!-- Env Arrows -->
  <line x1="240" y1="440" x2="260" y2="440" stroke="#666" stroke-width="2" marker-end="url(#arrowhead)"/>
  <line x1="400" y1="440" x2="420" y2="440" stroke="#666" stroke-width="2" marker-end="url(#arrowhead)"/>
  <line x1="560" y1="440" x2="580" y2="440" stroke="#666" stroke-width="2" marker-end="url(#arrowhead)"/>
  
  <!-- Connection from Pipeline to Environments -->
  <line x1="630" y1="280" x2="630" y2="400" stroke="#666" stroke-width="2" stroke-dasharray="5,5" marker-end="url(#arrowhead)"/>
  
  <!-- Monitoring -->
  <rect x="100" y="500" width="600" height="60" rx="10" ry="10" fill="url(#monitor-gradient)" filter="url(#shadow)" opacity="0.7"/>
  <text x="400" y="535" font-family="Arial, sans-serif" font-size="18" text-anchor="middle" fill="white" font-weight="bold">Monitoring &amp; Observability</text>
  
  <!-- Legend -->
  <rect x="100" y="570" width="600" height="20" rx="5" ry="5" fill="white" stroke="#ccc" stroke-width="1"/>
  
  <rect x="120" y="573" width="15" height="15" fill="url(#source-gradient)"/>
  <text x="170" y="585" font-family="Arial, sans-serif" font-size="12" fill="#333">Source</text>
  
  <rect x="220" y="573" width="15" height="15" fill="url(#build-gradient)"/>
  <text x="270" y="585" font-family="Arial, sans-serif" font-size="12" fill="#333">Build</text>
  
  <rect x="320" y="573" width="15" height="15" fill="url(#test-gradient)"/>
  <text x="370" y="585" font-family="Arial, sans-serif" font-size="12" fill="#333">Test</text>
  
  <rect x="420" y="573" width="15" height="15" fill="url(#security-gradient)"/>
  <text x="470" y="585" font-family="Arial, sans-serif" font-size="12" fill="#333">Security</text>
  
  <rect x="520" y="573" width="15" height="15" fill="url(#deploy-gradient)"/>
  <text x="570" y="585" font-family="Arial, sans-serif" font-size="12" fill="#333">Deploy</text>
</svg> 