<?xml version="1.0" encoding="UTF-8" standalone="no"?>
<svg xmlns="http://www.w3.org/2000/svg" xmlns:xlink="http://www.w3.org/1999/xlink" version="1.1" width="800" height="600" viewBox="0 0 800 600">
  <defs>
    <filter id="shadow" x="-10%" y="-10%" width="120%" height="120%">
      <feDropShadow dx="2" dy="2" stdDeviation="3" flood-opacity="0.3"/>
    </filter>
    <linearGradient id="frontend-gradient" x1="0%" y1="0%" x2="100%" y2="100%">
      <stop offset="0%" style="stop-color:#0078D4;stop-opacity:1"/>
      <stop offset="100%" style="stop-color:#0063B1;stop-opacity:1"/>
    </linearGradient>
    <linearGradient id="microservice-gradient" x1="0%" y1="0%" x2="100%" y2="100%">
      <stop offset="0%" style="stop-color:#83B81A;stop-opacity:1"/>
      <stop offset="100%" style="stop-color:#5A8010;stop-opacity:1"/>
    </linearGradient>
    <linearGradient id="database-gradient" x1="0%" y1="0%" x2="100%" y2="100%">
      <stop offset="0%" style="stop-color:#FF8C00;stop-opacity:1"/>
      <stop offset="100%" style="stop-color:#DD7B00;stop-opacity:1"/>
    </linearGradient>
    <linearGradient id="gateway-gradient" x1="0%" y1="0%" x2="100%" y2="100%">
      <stop offset="0%" style="stop-color:#8661C5;stop-opacity:1"/>
      <stop offset="100%" style="stop-color:#6B4C9E;stop-opacity:1"/>
    </linearGradient>
    <linearGradient id="messaging-gradient" x1="0%" y1="0%" x2="100%" y2="100%">
      <stop offset="0%" style="stop-color:#CF2030;stop-opacity:1"/>
      <stop offset="100%" style="stop-color:#B01B29;stop-opacity:1"/>
    </linearGradient>
    <linearGradient id="cloud-gradient" x1="0%" y1="0%" x2="100%" y2="100%">
      <stop offset="0%" style="stop-color:#0078D4;stop-opacity:0.2"/>
      <stop offset="100%" style="stop-color:#0063B1;stop-opacity:0.2"/>
    </linearGradient>
    <marker id="arrowhead" markerWidth="10" markerHeight="7" refX="9" refY="3.5" orient="auto">
      <polygon points="0 0, 10 3.5, 0 7" fill="#666"/>
    </marker>
  </defs>
  
  <!-- Title -->
  <text x="400" y="50" font-family="Arial, sans-serif" font-size="24" text-anchor="middle" font-weight="bold" fill="#333">Microservices Architecture Pattern</text>
  
  <!-- Cloud Environment -->
  <rect x="50" y="80" width="700" height="470" rx="10" ry="10" fill="url(#cloud-gradient)" stroke="#0078D4" stroke-width="2" stroke-dasharray="5,5"/>
  <text x="400" y="100" font-family="Arial, sans-serif" font-size="18" text-anchor="middle" fill="#0078D4" font-weight="bold">Azure Kubernetes Service (AKS)</text>
  
  <!-- Client Layer -->
  <rect x="350" y="130" width="100" height="40" rx="10" ry="10" fill="#F1F1F1" stroke="#999" stroke-width="2"/>
  <text x="400" y="155" font-family="Arial, sans-serif" font-size="16" text-anchor="middle" fill="#333" font-weight="bold">Clients</text>
  
  <!-- API Gateway -->
  <rect x="260" y="200" width="280" height="60" rx="10" ry="10" fill="url(#gateway-gradient)" filter="url(#shadow)"/>
  <text x="400" y="235" font-family="Arial, sans-serif" font-size="18" text-anchor="middle" fill="white" font-weight="bold">API Gateway</text>
  <text x="400" y="255" font-family="Arial, sans-serif" font-size="14" text-anchor="middle" fill="white">Azure API Management / NGINX / Envoy</text>
  
  <!-- Frontend Microservice -->
  <rect x="100" y="300" width="160" height="100" rx="10" ry="10" fill="url(#frontend-gradient)" filter="url(#shadow)"/>
  <text x="180" y="330" font-family="Arial, sans-serif" font-size="16" text-anchor="middle" fill="white" font-weight="bold">Frontend Service</text>
  <text x="180" y="350" font-family="Arial, sans-serif" font-size="12" text-anchor="middle" fill="white">React SPA</text>
  <text x="180" y="370" font-family="Arial, sans-serif" font-size="12" text-anchor="middle" fill="white">Container</text>
  
  <!-- Microservices -->
  <rect x="280" y="300" width="120" height="100" rx="10" ry="10" fill="url(#microservice-gradient)" filter="url(#shadow)"/>
  <text x="340" y="330" font-family="Arial, sans-serif" font-size="16" text-anchor="middle" fill="white" font-weight="bold">Users</text>
  <text x="340" y="350" font-family="Arial, sans-serif" font-size="12" text-anchor="middle" fill="white">Authentication</text>
  <text x="340" y="370" font-family="Arial, sans-serif" font-size="12" text-anchor="middle" fill="white">Authorization</text>
  
  <rect x="420" y="300" width="120" height="100" rx="10" ry="10" fill="url(#microservice-gradient)" filter="url(#shadow)"/>
  <text x="480" y="330" font-family="Arial, sans-serif" font-size="16" text-anchor="middle" fill="white" font-weight="bold">Products</text>
  <text x="480" y="350" font-family="Arial, sans-serif" font-size="12" text-anchor="middle" fill="white">Catalog</text>
  <text x="480" y="370" font-family="Arial, sans-serif" font-size="12" text-anchor="middle" fill="white">Inventory</text>
  
  <rect x="560" y="300" width="120" height="100" rx="10" ry="10" fill="url(#microservice-gradient)" filter="url(#shadow)"/>
  <text x="620" y="330" font-family="Arial, sans-serif" font-size="16" text-anchor="middle" fill="white" font-weight="bold">Orders</text>
  <text x="620" y="350" font-family="Arial, sans-serif" font-size="12" text-anchor="middle" fill="white">Processing</text>
  <text x="620" y="370" font-family="Arial, sans-serif" font-size="12" text-anchor="middle" fill="white">Fulfillment</text>
  
  <!-- Message Bus -->
  <rect x="100" y="430" width="580" height="40" rx="10" ry="10" fill="url(#messaging-gradient)" filter="url(#shadow)"/>
  <text x="390" y="455" font-family="Arial, sans-serif" font-size="16" text-anchor="middle" fill="white" font-weight="bold">Event Bus / Message Broker (Azure Service Bus / Event Hubs)</text>
  
  <!-- Databases -->
  <rect x="100" y="500" width="120" height="40" rx="5" ry="5" fill="url(#database-gradient)" filter="url(#shadow)"/>
  <text x="160" y="525" font-family="Arial, sans-serif" font-size="14" text-anchor="middle" fill="white" font-weight="bold">Users DB</text>
  
  <rect x="240" y="500" width="120" height="40" rx="5" ry="5" fill="url(#database-gradient)" filter="url(#shadow)"/>
  <text x="300" y="525" font-family="Arial, sans-serif" font-size="14" text-anchor="middle" fill="white" font-weight="bold">Products DB</text>
  
  <rect x="380" y="500" width="120" height="40" rx="5" ry="5" fill="url(#database-gradient)" filter="url(#shadow)"/>
  <text x="440" y="525" font-family="Arial, sans-serif" font-size="14" text-anchor="middle" fill="white" font-weight="bold">Orders DB</text>
  
  <rect x="520" y="500" width="160" height="40" rx="5" ry="5" fill="url(#database-gradient)" filter="url(#shadow)"/>
  <text x="600" y="525" font-family="Arial, sans-serif" font-size="14" text-anchor="middle" fill="white" font-weight="bold">Analytics DB</text>
  
  <!-- Connection Lines -->
  <line x1="400" y1="170" x2="400" y2="200" stroke="#666" stroke-width="2" marker-end="url(#arrowhead)"/>
  
  <line x1="300" y1="260" x2="180" y2="300" stroke="#666" stroke-width="2" marker-end="url(#arrowhead)"/>
  <line x1="340" y1="260" x2="340" y2="300" stroke="#666" stroke-width="2" marker-end="url(#arrowhead)"/>
  <line x1="460" y1="260" x2="480" y2="300" stroke="#666" stroke-width="2" marker-end="url(#arrowhead)"/>
  <line x1="500" y1="260" x2="620" y2="300" stroke="#666" stroke-width="2" marker-end="url(#arrowhead)"/>
  
  <line x1="180" y1="400" x2="180" y2="430" stroke="#666" stroke-width="2" marker-end="url(#arrowhead)"/>
  <line x1="340" y1="400" x2="340" y2="430" stroke="#666" stroke-width="2" marker-end="url(#arrowhead)"/>
  <line x1="480" y1="400" x2="480" y2="430" stroke="#666" stroke-width="2" marker-end="url(#arrowhead)"/>
  <line x1="620" y1="400" x2="620" y2="430" stroke="#666" stroke-width="2" marker-end="url(#arrowhead)"/>
  
  <line x1="160" y1="470" x2="160" y2="500" stroke="#666" stroke-width="2" marker-end="url(#arrowhead)"/>
  <line x1="300" y1="470" x2="300" y2="500" stroke="#666" stroke-width="2" marker-end="url(#arrowhead)"/>
  <line x1="440" y1="470" x2="440" y2="500" stroke="#666" stroke-width="2" marker-end="url(#arrowhead)"/>
  <line x1="580" y1="470" x2="580" y2="500" stroke="#666" stroke-width="2" marker-end="url(#arrowhead)"/>
  
  <!-- Database Direct Connections -->
  <line x1="340" y1="400" x2="160" y2="500" stroke="#666" stroke-width="2" stroke-dasharray="5,5" marker-end="url(#arrowhead)"/>
  <line x1="480" y1="400" x2="300" y2="500" stroke="#666" stroke-width="2" stroke-dasharray="5,5" marker-end="url(#arrowhead)"/>
  <line x1="620" y1="400" x2="440" y2="500" stroke="#666" stroke-width="2" stroke-dasharray="5,5" marker-end="url(#arrowhead)"/>
  
  <!-- Legend -->
  <rect x="50" y="550" width="700" height="40" rx="5" ry="5" fill="white" stroke="#ccc" stroke-width="1"/>
  <text x="400" y="570" font-family="Arial, sans-serif" font-size="14" text-anchor="middle" font-weight="bold" fill="#333">Microservices Architecture Pattern</text>
  
  <rect x="70" y="565" width="15" height="15" fill="url(#frontend-gradient)"/>
  <text x="125" y="577" font-family="Arial, sans-serif" font-size="12" fill="#333">Frontend</text>
  
  <rect x="180" y="565" width="15" height="15" fill="url(#microservice-gradient)"/>
  <text x="235" y="577" font-family="Arial, sans-serif" font-size="12" fill="#333">Microservices</text>
  
  <rect x="290" y="565" width="15" height="15" fill="url(#gateway-gradient)"/>
  <text x="345" y="577" font-family="Arial, sans-serif" font-size="12" fill="#333">API Gateway</text>
  
  <rect x="400" y="565" width="15" height="15" fill="url(#messaging-gradient)"/>
  <text x="455" y="577" font-family="Arial, sans-serif" font-size="12" fill="#333">Message Bus</text>
  
  <rect x="510" y="565" width="15" height="15" fill="url(#database-gradient)"/>
  <text x="565" y="577" font-family="Arial, sans-serif" font-size="12" fill="#333">Database</text>
  
  <line x1="620" y1="570" x2="650" y2="570" stroke="#666" stroke-width="2" stroke-dasharray="5,5"/>
  <text x="695" y="577" font-family="Arial, sans-serif" font-size="12" fill="#333">Event Flow</text>
</svg> 