<?xml version="1.0" encoding="UTF-8"?>
<svg width="800" height="500" viewBox="0 0 800 500" xmlns="http://www.w3.org/2000/svg">
  <!-- Background -->
  <rect width="800" height="500" fill="#f8f9fa" />
  
  <!-- Title -->
  <text x="400" y="40" font-family="Arial" font-size="24" font-weight="bold" text-anchor="middle" fill="#333">Three Horizons Platform Architecture</text>
  
  <!-- Azure Layer -->
  <rect x="100" y="80" width="600" height="120" rx="10" ry="10" fill="#0078D4" fill-opacity="0.2" stroke="#0078D4" stroke-width="2" />
  <text x="400" y="100" font-family="Arial" font-size="18" font-weight="bold" text-anchor="middle" fill="#0078D4">Microsoft Azure</text>
  
  <!-- Azure Components -->
  <rect x="120" y="120" width="120" height="60" rx="5" ry="5" fill="#0078D4" fill-opacity="0.7" stroke="#0078D4" stroke-width="1" />
  <text x="180" y="155" font-family="Arial" font-size="12" font-weight="bold" text-anchor="middle" fill="white">AKS/ARO</text>
  
  <rect x="260" y="120" width="120" height="60" rx="5" ry="5" fill="#0078D4" fill-opacity="0.7" stroke="#0078D4" stroke-width="1" />
  <text x="320" y="155" font-family="Arial" font-size="12" font-weight="bold" text-anchor="middle" fill="white">Microsoft Entra ID</text>
  
  <rect x="400" y="120" width="120" height="60" rx="5" ry="5" fill="#0078D4" fill-opacity="0.7" stroke="#0078D4" stroke-width="1" />
  <text x="460" y="155" font-family="Arial" font-size="12" font-weight="bold" text-anchor="middle" fill="white">Azure Container Registry</text>
  
  <rect x="540" y="120" width="120" height="60" rx="5" ry="5" fill="#0078D4" fill-opacity="0.7" stroke="#0078D4" stroke-width="1" />
  <text x="600" y="155" font-family="Arial" font-size="12" font-weight="bold" text-anchor="middle" fill="white">Azure Monitor</text>
  
  <!-- Red Hat Developer Hub Layer -->
  <rect x="100" y="220" width="600" height="120" rx="10" ry="10" fill="#EE0000" fill-opacity="0.2" stroke="#EE0000" stroke-width="2" />
  <text x="400" y="240" font-family="Arial" font-size="18" font-weight="bold" text-anchor="middle" fill="#EE0000">Red Hat Developer Hub</text>
  
  <!-- Developer Hub Components -->
  <rect x="120" y="260" width="120" height="60" rx="5" ry="5" fill="#EE0000" fill-opacity="0.7" stroke="#EE0000" stroke-width="1" />
  <text x="180" y="295" font-family="Arial" font-size="12" font-weight="bold" text-anchor="middle" fill="white">Software Catalog</text>
  
  <rect x="260" y="260" width="120" height="60" rx="5" ry="5" fill="#EE0000" fill-opacity="0.7" stroke="#EE0000" stroke-width="1" />
  <text x="320" y="295" font-family="Arial" font-size="12" font-weight="bold" text-anchor="middle" fill="white">Golden Path Templates</text>
  
  <rect x="400" y="260" width="120" height="60" rx="5" ry="5" fill="#EE0000" fill-opacity="0.7" stroke="#EE0000" stroke-width="1" />
  <text x="460" y="295" font-family="Arial" font-size="12" font-weight="bold" text-anchor="middle" fill="white">Technical Documentation</text>
  
  <rect x="540" y="260" width="120" height="60" rx="5" ry="5" fill="#EE0000" fill-opacity="0.7" stroke="#EE0000" stroke-width="1" />
  <text x="600" y="295" font-family="Arial" font-size="12" font-weight="bold" text-anchor="middle" fill="white">Plugin Ecosystem</text>
  
  <!-- GitHub Layer -->
  <rect x="100" y="360" width="600" height="120" rx="10" ry="10" fill="#24292E" fill-opacity="0.2" stroke="#24292E" stroke-width="2" />
  <text x="400" y="380" font-family="Arial" font-size="18" font-weight="bold" text-anchor="middle" fill="#24292E">GitHub Enterprise</text>
  
  <!-- GitHub Components -->
  <rect x="120" y="400" width="120" height="60" rx="5" ry="5" fill="#24292E" fill-opacity="0.7" stroke="#24292E" stroke-width="1" />
  <text x="180" y="435" font-family="Arial" font-size="12" font-weight="bold" text-anchor="middle" fill="white">Source Repositories</text>
  
  <rect x="260" y="400" width="120" height="60" rx="5" ry="5" fill="#24292E" fill-opacity="0.7" stroke="#24292E" stroke-width="1" />
  <text x="320" y="435" font-family="Arial" font-size="12" font-weight="bold" text-anchor="middle" fill="white">GitHub Actions</text>
  
  <rect x="400" y="400" width="120" height="60" rx="5" ry="5" fill="#24292E" fill-opacity="0.7" stroke="#24292E" stroke-width="1" />
  <text x="460" y="435" font-family="Arial" font-size="12" font-weight="bold" text-anchor="middle" fill="white">GitHub Copilot</text>
  
  <rect x="540" y="400" width="120" height="60" rx="5" ry="5" fill="#24292E" fill-opacity="0.7" stroke="#24292E" stroke-width="1" />
  <text x="600" y="435" font-family="Arial" font-size="12" font-weight="bold" text-anchor="middle" fill="white">Advanced Security</text>
  
  <!-- Integration Lines -->
  <line x1="180" y1="180" x2="180" y2="260" stroke="#666" stroke-width="2" stroke-dasharray="5,5" />
  <line x1="320" y1="180" x2="320" y2="260" stroke="#666" stroke-width="2" stroke-dasharray="5,5" />
  <line x1="460" y1="180" x2="460" y2="260" stroke="#666" stroke-width="2" stroke-dasharray="5,5" />
  <line x1="600" y1="180" x2="600" y2="260" stroke="#666" stroke-width="2" stroke-dasharray="5,5" />
  
  <line x1="180" y1="320" x2="180" y2="400" stroke="#666" stroke-width="2" stroke-dasharray="5,5" />
  <line x1="320" y1="320" x2="320" y2="400" stroke="#666" stroke-width="2" stroke-dasharray="5,5" />
  <line x1="460" y1="320" x2="460" y2="400" stroke="#666" stroke-width="2" stroke-dasharray="5,5" />
  <line x1="600" y1="320" x2="600" y2="400" stroke="#666" stroke-width="2" stroke-dasharray="5,5" />
</svg>
